<?xml version="1.0" standalone="no"?>
<!DOCTYPE svg PUBLIC "-//W3C//DTD SVG 20010904//EN"
 "http://www.w3.org/TR/2001/REC-SVG-20010904/DTD/svg10.dtd">
<svg version="1.0" xmlns="http://www.w3.org/2000/svg"
 width="724.000000pt" height="724.000000pt" viewBox="0 0 724.000000 724.000000"
 preserveAspectRatio="xMidYMid meet">
<metadata>
Created by potrace 1.11, written by Peter Selinger 2001-2013
</metadata>
<g transform="translate(0.000000,724.000000) scale(0.100000,-0.100000)"
fill="#000000" stroke="none">
<path d="M3507 7219 c-8 -13 -74 -136 -147 -274 -73 -137 -146 -273 -162 -302
l-29 -52 -62 48 c-80 63 -183 126 -274 167 -84 39 -247 90 -316 100 l-47 6
-34 -73 c-79 -171 -122 -443 -133 -841 l-6 -227 -46 -33 c-25 -18 -78 -63
-117 -100 l-71 -68 -1022 0 c-561 0 -1021 -2 -1021 -4 0 -3 209 -328 465 -723
l465 -718 -29 -25 c-16 -14 -90 -68 -165 -120 -89 -63 -135 -101 -135 -114 -1
-23 66 -159 109 -221 114 -165 274 -286 441 -331 36 -10 120 -20 193 -23 l128
-6 1062 -1642 c583 -903 1063 -1642 1066 -1642 3 0 311 473 685 1052 373 579
1182 1830 1797 2780 615 951 1118 1730 1118 1733 0 2 -631 4 -1403 4 l-1403 0
-17 128 c-32 236 -91 423 -211 667 -131 266 -351 569 -574 789 l-90 88 -15
-23z m-566 -668 c161 -109 164 -112 150 -152 -17 -53 -148 -288 -194 -349
l-41 -55 -7 30 c-4 17 -20 84 -35 150 -34 152 -81 288 -154 442 l-58 122 117
-59 c65 -32 165 -90 222 -129z m964 -106 c134 -262 261 -582 314 -787 l29
-112 -185 -139 c-102 -76 -186 -137 -188 -135 -1 2 -8 136 -14 298 -21 535
-62 962 -107 1125 -11 39 80 -112 151 -250z m-2075 -1170 c0 -3 -14 -34 -32
-68 -17 -34 -57 -135 -88 -223 -61 -172 -102 -254 -174 -351 -55 -73 -176
-188 -279 -266 -68 -53 -78 -57 -92 -44 -8 9 -15 18 -15 21 0 9 -93 151 -102
154 -4 2 -8 8 -8 14 0 5 -26 49 -58 96 -32 48 -78 119 -103 157 -24 39 -46 72
-50 75 -3 3 -8 10 -10 15 -2 6 -51 82 -109 170 -58 88 -118 181 -133 208 l-28
47 641 0 c352 0 640 -2 640 -5z m4840 -27 c-12 -18 -24 -41 -27 -50 -3 -10 -9
-18 -14 -18 -5 0 -9 -6 -9 -14 0 -8 -4 -16 -8 -18 -8 -3 -82 -114 -82 -122 0
-2 -229 -358 -510 -791 -280 -433 -510 -780 -510 -771 0 24 -44 214 -90 386
-139 517 -345 960 -611 1313 l-89 117 986 0 986 0 -22 -32z m-4100 -409 c35
-5 66 -12 68 -14 8 -8 -43 -62 -108 -115 -72 -59 -171 -110 -212 -110 -35 0
-117 28 -135 46 -8 8 -18 14 -23 14 -5 0 -14 8 -19 18 -8 14 -4 28 15 56 67
98 219 137 414 105z m2604 -1085 c125 -131 249 -260 275 -285 l47 -46 -32 -47
-31 -46 -191 194 c-105 106 -198 196 -208 200 -15 6 -16 1 -11 -36 4 -24 12
-129 19 -235 24 -384 -37 -790 -142 -948 -42 -63 -39 -64 -60 35 -11 50 -10
63 13 140 68 225 93 538 67 845 -6 66 -26 221 -45 344 -19 123 -35 227 -35
230 1 3 24 -19 53 -50 29 -31 155 -164 281 -295z m-2494 -333 c0 -26 -139
-412 -191 -529 -34 -75 -63 -147 -66 -160 -8 -35 19 -19 142 83 151 126 239
192 294 220 60 30 243 106 247 102 2 -1 -8 -63 -21 -137 -41 -240 -59 -500
-33 -500 13 0 56 27 277 172 136 90 166 106 178 96 60 -50 238 -304 308 -440
22 -43 46 -80 53 -83 8 -3 20 13 33 43 34 77 135 385 183 556 25 87 48 161 52
165 3 3 45 6 92 6 226 -1 429 -131 533 -339 l42 -85 -34 -90 c-18 -50 -34 -89
-36 -87 -1 1 -14 42 -28 91 -34 116 -74 191 -139 257 -81 82 -205 138 -308
138 l-37 0 -21 -72 c-49 -171 -136 -433 -187 -561 -65 -165 -154 -350 -163
-340 -4 5 -17 44 -29 87 -29 104 -96 253 -161 363 -62 104 -170 253 -183 253
-5 0 -53 -29 -106 -64 -137 -90 -275 -177 -356 -224 l-70 -40 -9 26 c-14 43
-12 386 3 500 7 57 11 106 8 109 -21 20 -141 -61 -317 -212 -158 -136 -281
-229 -289 -219 -25 28 -511 788 -506 792 3 3 78 14 167 24 141 16 524 76 628
98 50 11 50 11 50 1z"/>
</g>
</svg>
